<?xml version="1.0" standalone="no"?>
<!DOCTYPE svg PUBLIC "-//W3C//DTD SVG 20010904//EN"
 "http://www.w3.org/TR/2001/REC-SVG-20010904/DTD/svg10.dtd">
<svg version="1.0" xmlns="http://www.w3.org/2000/svg"
 width="332.000000pt" height="254.000000pt" viewBox="0 0 332.000000 254.000000"
 preserveAspectRatio="xMidYMid meet">

<g transform="translate(0.000000,254.000000) scale(0.100000,-0.100000)"
fill="#000000" stroke="none">
<path d="M1543 2446 c-53 -30 -96 -139 -95 -242 2 -182 127 -323 253 -285 132
40 207 228 156 393 -20 67 -75 130 -127 147 -55 17 -144 11 -187 -13z"/>
<path d="M895 2406 c-46 -21 -91 -76 -100 -121 -16 -86 -16 -187 0 -240 66
-229 282 -264 384 -62 30 59 35 76 35 145 0 102 -24 172 -76 223 -22 22 -48
39 -58 39 -10 0 -20 4 -22 9 -6 16 -131 21 -163 7z"/>
<path d="M2245 2387 c-56 -26 -121 -119 -139 -199 -4 -15 0 -59 8 -97 31 -150
109 -241 205 -243 82 -1 137 37 184 125 30 58 32 69 32 162 0 111 -16 158 -77
225 -31 33 -36 35 -108 38 -47 1 -86 -3 -105 -11z"/>
<path d="M153 2049 c-17 -5 -41 -21 -52 -35 -20 -25 -21 -40 -21 -254 0 -263
16 -386 74 -563 173 -529 620 -938 1155 -1057 47 -10 88 -17 91 -14 2 3 3 89
1 192 -3 217 -16 275 -84 374 -81 118 -206 191 -362 210 l-80 10 -186 184
c-174 173 -187 184 -223 184 -53 0 -90 -23 -110 -68 -30 -66 -16 -88 169 -273
157 -156 183 -189 151 -189 -18 0 -346 328 -357 358 -5 13 -9 208 -9 433 0
331 -3 416 -14 444 -24 56 -82 82 -143 64z"/>
<path d="M3080 2043 c-70 -36 -70 -38 -69 -505 0 -307 -3 -422 -12 -440 -20
-39 -332 -348 -351 -348 -10 0 -18 4 -18 10 0 5 71 81 158 168 86 87 165 170
175 185 22 34 22 75 -2 111 -26 39 -57 55 -105 56 -38 0 -47 -7 -225 -184
l-186 -184 -65 -7 c-226 -25 -391 -160 -445 -366 -10 -37 -15 -110 -15 -237
l0 -182 28 6 c240 55 349 97 533 207 193 116 366 279 491 466 107 160 158 268
210 446 44 153 59 261 65 490 5 176 3 216 -10 247 -27 64 -97 91 -157 61z"/>
<path d="M2830 1973 c-59 -30 -60 -37 -60 -375 l0 -306 47 14 c50 15 99 8 141
-21 l22 -16 0 315 c0 176 -4 326 -10 340 -19 52 -87 75 -140 49z"/>
<path d="M374 1949 l-29 -30 -3 -325 c-1 -178 0 -324 4 -324 3 0 19 9 35 21
41 29 89 34 127 15 17 -9 33 -16 37 -16 11 0 5 611 -6 633 -19 37 -52 57 -95
57 -32 0 -46 -6 -70 -31z"/>
<path d="M633 1860 c-36 -21 -53 -67 -53 -142 0 -81 6 -84 66 -29 29 27 73 57
98 67 25 11 46 24 46 31 0 43 -54 93 -102 93 -12 0 -37 -9 -55 -20z"/>
<path d="M2595 1871 c-25 -11 -51 -40 -59 -68 -6 -18 0 -25 38 -42 64 -28 114
-70 139 -116 l22 -40 3 80 c4 103 -10 150 -51 175 -34 21 -59 24 -92 11z"/>
<path d="M1585 1840 c-3 -5 -24 -10 -46 -10 -21 0 -47 -4 -57 -9 -9 -5 -35
-16 -57 -26 -22 -9 -56 -29 -75 -44 l-34 -29 28 -41 c16 -23 32 -41 36 -41 4
0 18 -23 30 -52 22 -51 22 -59 21 -423 l-2 -372 34 -49 c92 -133 107 -196 107
-451 l0 -193 90 0 90 0 0 188 c1 117 6 210 14 249 15 72 56 159 94 205 l27 32
5 390 c5 382 6 392 28 437 12 26 36 61 52 78 17 17 30 35 30 40 0 17 -66 61
-121 82 -28 11 -97 26 -153 34 -121 18 -133 18 -141 5z"/>
<path d="M880 1759 c-19 -5 -51 -9 -70 -10 -37 -2 -140 -53 -140 -70 0 -6 -11
-22 -25 -37 -43 -46 -57 -105 -62 -251 l-4 -134 158 -159 c147 -148 160 -158
195 -158 61 0 139 -20 208 -54 36 -17 68 -32 72 -34 4 -2 8 171 10 385 3 382
3 389 26 431 l23 43 -37 15 c-93 39 -267 55 -354 33z"/>
<path d="M2163 1751 c-40 -11 -81 -25 -92 -30 -18 -10 -18 -11 3 -53 20 -41
21 -58 24 -430 1 -214 4 -388 6 -388 2 0 37 16 77 35 73 34 153 55 213 55 27
0 53 21 189 158 l157 157 0 125 c0 69 -5 141 -10 160 -15 53 -67 130 -88 130
-9 0 -29 13 -43 29 -36 42 -112 62 -249 67 -93 3 -129 0 -187 -15z"/>
<path d="M1274 1643 c-17 -35 -19 -71 -22 -426 l-3 -388 50 -57 c27 -31 61
-77 75 -102 l26 -45 0 442 c0 319 -3 456 -12 489 -12 42 -69 124 -88 124 -4 0
-16 -17 -26 -37z"/>
<path d="M1988 1653 c-65 -70 -63 -52 -65 -568 -2 -402 -1 -466 11 -440 19 42
104 155 121 161 13 5 15 62 15 398 0 365 -2 394 -20 434 -10 23 -23 42 -28 42
-4 0 -20 -12 -34 -27z"/>
<path d="M1440 417 c0 -326 -4 -307 66 -307 l34 0 0 183 c0 125 -5 202 -15
245 -15 63 -56 155 -75 167 -7 4 -10 -91 -10 -288z"/>
<path d="M1851 679 c-57 -93 -64 -130 -69 -356 l-4 -213 46 0 c28 0 48 5 51
13 9 23 13 564 5 577 -6 10 -14 4 -29 -21z"/>
</g>
</svg>
